<svg id="kb" enable-background="new 0 0 512 512" height="110" viewBox="0 0 512 512" width="110" xmlns="http://www.w3.org/2000/svg"><g><path d="m73.667 432.104 80.82 52.625c28.003 11.14 58.542 17.271 90.515 17.271 31.131 0 60.899-5.819 88.293-16.408l80.82-51.319c46.757-44.617 75.889-107.543 75.889-177.275 0-135.311-109.691-245.002-245.002-245.002s-245.002 109.691-245.002 245.002c0 68.615 28.218 130.629 73.667 175.106z" fill="#f964b2"/><path d="m449.793 362.516h-411.803c-6.863 0-12.479-5.616-12.479-12.479v-291.174c0-6.863 5.615-12.479 12.479-12.479h411.802c6.863 0 12.479 5.616 12.479 12.479v291.173c0 6.864-5.615 12.48-12.478 12.48z" fill="#d3dcfb"/><path d="m238.692 344.9-10.666-98.917c-11-5.774-4.375-17.616-4.375-17.616-6.375-4.264-2.184-10.399-2.184-10.399v-4.682h-90.582v-124.436c-7.253-7.254 0-15.363 0-15.363l-12.508-18.771c-2.134-2.905-3.692-5.682-4.782-8.332h-75.605c-6.863 0-12.479 5.616-12.479 12.479v291.173c0 6.863 5.615 12.479 12.479 12.479h200.701c-8.599-8.6.001-17.615.001-17.615z" fill="#bec8f7"/><path d="m310.766 344.9h-133.749c-2.816 0-5.12-2.304-5.12-5.12v-88.676c0-2.816 2.304-5.12 5.12-5.12h133.749c2.816 0 5.12 2.304 5.12 5.12v88.676c0 2.816-2.304 5.12-5.12 5.12z" fill="#bec8f7"/><path d="m226.014 329.811v-68.739c0-7.012 4.606-12.992 10.939-15.089h-59.936c-2.816 0-5.12 2.304-5.12 5.12v88.676c0 2.816 2.304 5.12 5.12 5.12h59.936c-6.333-2.095-10.939-8.075-10.939-15.088z" fill="#a3b3ef"/><path d="m80.333 46.384v17.756c0 5.14 4.206 9.346 9.346 9.346h308.425c5.14 0 9.346-4.206 9.346-9.346v-17.756z" fill="#3c58a0"/><path d="m117.333 59.936c0-7.484 6.067-13.552 13.551-13.552h-50.551v17.756c0 5.141 4.206 9.346 9.346 9.346h41.205c-7.484.001-13.551-6.066-13.551-13.55z" fill="#2a428c"/><path d="m438.874 10h-389.965c-17.731 0-32.237 14.507-32.237 32.237 0 6.863 5.615 12.479 12.479 12.479h429.481c6.864 0 12.479-5.615 12.479-12.479 0-17.73-14.507-32.237-32.237-32.237z" fill="#e9efff"/><path d="m16.672 42.237c0 6.864 5.615 12.479 12.479 12.479h89.225c-20.816-28.333 12.508-44.716 12.508-44.716h-81.975c-17.73 0-32.237 14.507-32.237 32.237z" fill="#d3dcfb"/><path d="m420.455 228.368h-353.127c-4.421 0-8.038-3.617-8.038-8.038v-123.443c0-4.421 3.617-8.037 8.038-8.037h353.126c4.421 0 8.038 3.617 8.038 8.037v123.443c0 4.421-3.617 8.038-8.037 8.038z" fill="#e9efff"/><path d="m148.992 216.004v-20.811c0-1.085-.88-1.965-1.965-1.965h-30.522c-1.085 0-1.965.88-1.965 1.965v20.811c0 1.085.88 1.965 1.965 1.965h30.522c1.085 0 1.965-.88 1.965-1.965z" fill="#2a428c"/><path d="m102.176 193.228h-30.521c-1.085 0-1.965.88-1.965 1.965v20.811c0 1.085.88 1.965 1.965 1.965h30.521c1.085 0 1.965-.88 1.965-1.965v-20.811c0-1.085-.88-1.965-1.965-1.965z" fill="#2a428c"/><path d="m385.607 217.969h30.521c1.085 0 1.965-.88 1.965-1.965v-20.811c0-1.085-.88-1.965-1.965-1.965h-30.521c-1.085 0-1.965.88-1.965 1.965v20.811c0 1.085.879 1.965 1.965 1.965z" fill="#3c58a0"/><path d="m371.278 193.228h-30.522c-1.085 0-1.965.88-1.965 1.965v20.811c0 1.085.88 1.965 1.965 1.965h30.522c1.085 0 1.965-.88 1.965-1.965v-20.811c0-1.085-.88-1.965-1.965-1.965z" fill="#3c58a0"/><path d="m281.578 99.249h-30.522c-1.085 0-1.965.88-1.965 1.965v9.372c0 1.085.88 1.965 1.965 1.965h30.522c1.085 0 1.965-.88 1.965-1.965v-9.372c-.001-1.085-.88-1.965-1.965-1.965z" fill="#3c58a0"/><path d="m191.877 99.249h-30.522c-1.085 0-1.965.88-1.965 1.965v9.372c0 1.085.88 1.965 1.965 1.965h30.522c1.085 0 1.965-.88 1.965-1.965v-9.372c0-1.085-.88-1.965-1.965-1.965z" fill="#2a428c"/><path d="m148.992 110.586v-9.372c0-1.085-.88-1.965-1.965-1.965h-30.522c-1.085 0-1.965.88-1.965 1.965v9.372c0 1.085.88 1.965 1.965 1.965h30.522c1.085-.001 1.965-.88 1.965-1.965z" fill="#2a428c"/><path d="m236.727 99.249h-30.522c-1.085 0-1.965.88-1.965 1.965v9.372c0 1.085.88 1.965 1.965 1.965h30.522c1.085 0 1.965-.88 1.965-1.965v-9.372c0-1.085-.88-1.965-1.965-1.965z" fill="#3c58a0"/><path d="m102.176 99.249h-30.521c-1.085 0-1.965.88-1.965 1.965v9.372c0 1.085.88 1.965 1.965 1.965h30.521c1.085 0 1.965-.88 1.965-1.965v-9.372c0-1.085-.88-1.965-1.965-1.965z" fill="#2a428c"/><path d="m326.428 99.249h-30.522c-1.085 0-1.965.88-1.965 1.965v9.372c0 1.085.88 1.965 1.965 1.965h30.522c1.085 0 1.965-.88 1.965-1.965v-9.372c0-1.085-.88-1.965-1.965-1.965z" fill="#3c58a0"/><path d="m326.428 158.089h-30.522c-1.085 0-1.965.88-1.965 1.965v20.811c0 1.085.88 1.965 1.965 1.965h30.522c1.085 0 1.965-.88 1.965-1.965v-20.811c0-1.085-.88-1.965-1.965-1.965z" fill="#3c58a0"/><path d="m338.791 160.054v20.811c0 1.085.88 1.965 1.965 1.965h75.372c1.085 0 1.965-.88 1.965-1.965v-20.811c0-1.085-.88-1.965-1.965-1.965h-75.372c-1.085 0-1.965.88-1.965 1.965z" fill="#3c58a0"/><path d="m69.69 160.054v20.811c0 1.085.88 1.965 1.965 1.965h75.372c1.085 0 1.965-.88 1.965-1.965v-20.811c0-1.085-.88-1.965-1.965-1.965h-75.372c-1.085 0-1.965.88-1.965 1.965z" fill="#2a428c"/><path d="m191.877 122.949h-30.522c-1.085 0-1.965.88-1.965 1.965v20.811c0 1.085.88 1.965 1.965 1.965h30.522c1.085 0 1.965-.88 1.965-1.965v-20.811c0-1.085-.88-1.965-1.965-1.965z" fill="#2a428c"/><path d="m236.727 122.949h-30.522c-1.085 0-1.965.88-1.965 1.965v20.811c0 1.085.88 1.965 1.965 1.965h30.522c1.085 0 1.965-.88 1.965-1.965v-20.811c0-1.085-.88-1.965-1.965-1.965z" fill="#3c58a0"/><path d="m148.992 145.725v-20.811c0-1.085-.88-1.965-1.965-1.965h-30.522c-1.085 0-1.965.88-1.965 1.965v20.811c0 1.085.88 1.965 1.965 1.965h30.522c1.085 0 1.965-.88 1.965-1.965z" fill="#2a428c"/><path d="m281.578 122.949h-30.522c-1.085 0-1.965.88-1.965 1.965v20.811c0 1.085.88 1.965 1.965 1.965h30.522c1.085 0 1.965-.88 1.965-1.965v-20.811c-.001-1.085-.88-1.965-1.965-1.965z" fill="#3c58a0"/><path d="m326.428 122.949h-30.522c-1.085 0-1.965.88-1.965 1.965v20.811c0 1.085.88 1.965 1.965 1.965h30.522c1.085 0 1.965-.88 1.965-1.965v-20.811c0-1.085-.88-1.965-1.965-1.965z" fill="#3c58a0"/><path d="m102.176 122.949h-30.521c-1.085 0-1.965.88-1.965 1.965v20.811c0 1.085.88 1.965 1.965 1.965h30.521c1.085 0 1.965-.88 1.965-1.965v-20.811c0-1.085-.88-1.965-1.965-1.965z" fill="#2a428c"/><path d="m191.877 158.089h-30.522c-1.085 0-1.965.88-1.965 1.965v20.811c0 1.085.88 1.965 1.965 1.965h30.522c1.085 0 1.965-.88 1.965-1.965v-20.811c0-1.085-.88-1.965-1.965-1.965z" fill="#2a428c"/><path d="m236.727 158.089h-30.522c-1.085 0-1.965.88-1.965 1.965v20.811c0 1.085.88 1.965 1.965 1.965h30.522c1.085 0 1.965-.88 1.965-1.965v-20.811c0-1.085-.88-1.965-1.965-1.965z" fill="#3c58a0"/><path d="m220.616 110.586v-9.372c0-1.085.88-1.965 1.965-1.965h-16.375c-1.085 0-1.965.88-1.965 1.965v9.372c0 1.085.88 1.965 1.965 1.965h16.375c-1.086-.001-1.965-.88-1.965-1.965z" fill="#2a428c"/><path d="m220.616 145.725v-20.811c0-1.085.88-1.965 1.965-1.965h-16.375c-1.085 0-1.965.88-1.965 1.965v20.811c0 1.085.88 1.965 1.965 1.965h16.375c-1.086 0-1.965-.88-1.965-1.965z" fill="#2a428c"/><path d="m220.616 180.865v-20.811c0-1.085.88-1.965 1.965-1.965h-16.375c-1.085 0-1.965.88-1.965 1.965v20.811c0 1.085.88 1.965 1.965 1.965h16.375c-1.086-.001-1.965-.881-1.965-1.965z" fill="#2a428c"/><path d="m281.578 158.089h-30.522c-1.085 0-1.965.88-1.965 1.965v20.811c0 1.085.88 1.965 1.965 1.965h30.522c1.085 0 1.965-.88 1.965-1.965v-20.811c-.001-1.085-.88-1.965-1.965-1.965z" fill="#3c58a0"/><path d="m326.428 193.228c-5.228 0-175.737 0-165.073 0-1.085 0-1.965.879-1.965 1.965v20.81c0 1.086.88 1.965 1.965 1.965h165.073c1.085 0 1.965-.879 1.965-1.965v-20.81c0-1.085-.88-1.965-1.965-1.965z" fill="#3c58a0"/><path d="m221.466 216.004v-20.81c0-1.086.88-1.965 1.965-1.965-.16 0-.32 0-.48 0-30.936 0-57.738 0-61.596 0-1.085 0-1.965.879-1.965 1.965v20.81c0 1.086.88 1.965 1.965 1.965h62.076c-1.085 0-1.965-.88-1.965-1.965z" fill="#2a428c"/><path d="m435.328 281.915c0-3.849 0-41.587 0-45.916 0-7.491-6.073-13.564-13.564-13.564s-13.564 6.073-13.564 13.564v-22.712c0-7.492-6.073-13.564-13.564-13.564s-13.564 6.073-13.564 13.564v-16.893c0-7.491-6.073-13.564-13.564-13.564s-13.564 6.073-13.564 13.564v16.893c0-7.492-6.073-13.564-13.564-13.564-7.491 0-13.564 6.073-13.564 13.564v77.493c-.458 4.134-.296 8.238-1.307 12.282-.954 3.815-5.922 4.802-8.237 1.623-5.261-7.223-13.504-17.891-22.119-26.506-6.335-6.335-13.006-6.587-18.505-4.867-6.443 2.015-8.552 10.132-3.798 14.925 13.676 13.788 18.686 30.167 20.487 41.415 1.397 8.719 5.529 16.767 11.646 23.137 9.227 9.606 17.187 20.958 22.214 28.741 4.404 6.819 6.588 14.852 6.099 22.954v81.108c30.315-11.717 57.721-29.278 80.82-51.32v-35.702c0-15.311 5.819-27.375 5.792-27.292 10.804-24.309 15.42-62.865 15.42-89.363z" fill="#f9ba8f"/><path d="m211.136 273.312c-5.499-1.72-12.17-1.468-18.505 4.867-8.616 8.616-16.858 19.283-22.119 26.506-2.315 3.179-7.283 2.193-8.237-1.623-1.011-4.044-.85-8.148-1.307-12.282 0-19.804 0-62.76 0-77.493 0-7.492-6.073-13.564-13.564-13.564-7.491 0-13.564 6.073-13.564 13.564v-16.893c0-7.491-6.073-13.564-13.564-13.564s-13.564 6.073-13.564 13.564v16.893c0-7.492-6.073-13.564-13.564-13.564s-13.564 6.073-13.564 13.564v22.712c0-7.491-6.073-13.564-13.564-13.564s-13.564 6.073-13.564 13.564v45.916c0 26.499 4.617 65.054 15.421 89.364-.027-.083 5.792 11.98 5.792 27.292v33.533c23 22.508 50.408 40.527 80.82 52.625v-80.245c-.489-8.102 1.695-16.135 6.098-22.954 5.027-7.783 12.987-19.135 22.214-28.741 6.118-6.369 10.25-14.417 11.646-23.137 1.801-11.248 6.812-27.627 20.487-41.415 4.754-4.793 2.645-12.91-3.798-14.925z" fill="#f9ba8f"/><path d="m487.097 10h-128.75c-13.697 0-24.903 11.206-24.903 24.903v102.228c0 13.697 11.206 24.903 24.903 24.903 3.501 0 5.441 4.021 3.3 6.79-2.281 2.951-4.838 5.702-7.677 8.203-5.296 4.665-2.317 14.229 4.4 14.208 17.07-.053 33.067-8.717 43.954-22.829 3.06-3.966 7.717-6.372 12.727-6.372h72.046c13.697 0 24.903-11.206 24.903-24.903v-102.228c0-13.697-11.206-24.903-24.903-24.903z" fill="#4fabf7"/><path d="m416.515 162.034c-13.697 0-24.903-11.207-24.903-24.903v-102.228c0-13.697 11.206-24.903 24.903-24.903h-58.167c-13.697 0-24.903 11.207-24.903 24.903v102.228c0 13.697 11.206 24.903 24.903 24.903 3.501 0 5.441 4.02 3.3 6.79-2.281 2.951-4.838 5.702-7.677 8.203-5.296 4.665-2.317 14.229 4.4 14.208 17.07-.053 33.067-8.717 43.954-22.829 3.06-3.966 7.717-6.372 12.727-6.372z" fill="#1886ea"/><ellipse cx="379.645" cy="88.741" fill="#e9efff" rx="11.967" ry="11.967" transform="matrix(.229 -.974 .974 .229 206.474 438.05)"/><ellipse cx="420.47" cy="88.741" fill="#e9efff" rx="11.967" ry="11.967" transform="matrix(.923 -.386 .386 .923 -1.711 168.946)"/><ellipse cx="461.295" cy="88.741" fill="#e9efff" rx="11.967" ry="11.967" transform="matrix(.786 -.619 .619 .786 43.977 304.411)"/><path d="m333.295 485.592c30.315-11.717 57.721-29.278 80.82-51.32v-35.702c0-8.522 1.802-16.033 3.396-21.009-44.76 46.68-90.315 3.968-90.315 3.968 4.404 6.819 6.588 14.852 6.099 22.954z" fill="#fd995b"/><path d="m154.488 484.729v-80.245c-.489-8.102 1.695-16.135 6.098-22.954-61.439 41.648-89.412-.915-89.412-.915 1.302 4.773 2.493 11.03 2.493 17.956v33.533c23.001 22.508 50.409 40.527 80.821 52.625z" fill="#fd995b"/><g fill="#f9dfcd"><path d="m217.481 281.368c-4.08-.892-11.222-1.55-14.789 3.514-4.62 6.558-6.166 10.583 2.972 14.937 2.536-3.948 5.578-7.859 9.27-11.581 1.935-1.952 2.716-4.453 2.547-6.87z"/><path d="m270.301 281.368c4.08-.892 11.222-1.55 14.789 3.514 4.62 6.558 6.166 10.583-2.972 14.937-2.536-3.948-5.578-7.859-9.27-11.581-1.934-1.952-2.715-4.453-2.547-6.87z"/><path d="m68.435 222.548h-4.815c-3.991 0-7.257 3.266-7.257 7.257v7.985c0 3.991 3.266 7.257 7.257 7.257h4.815c3.991 0 7.257-3.266 7.257-7.257v-7.985c0-3.991-3.266-7.257-7.257-7.257z"/><path d="m95.632 199.05h-4.815c-3.991 0-7.257 3.266-7.257 7.257v7.985c0 3.991 3.266 7.257 7.257 7.257h4.815c3.991 0 7.257-3.266 7.257-7.257v-7.985c0-3.992-3.266-7.257-7.257-7.257z"/><path d="m122.799 182.829h-4.815c-3.991 0-7.257 3.266-7.257 7.257v7.985c0 3.991 3.266 7.257 7.257 7.257h4.815c3.991 0 7.257-3.266 7.257-7.257v-7.985c0-3.991-3.266-7.257-7.257-7.257z"/><path d="m149.8 199.579h-4.815c-3.991 0-7.257 3.266-7.257 7.257v7.985c0 3.991 3.266 7.257 7.257 7.257h4.815c3.991 0 7.257-3.266 7.257-7.257v-7.985c0-3.991-3.266-7.257-7.257-7.257z"/><path d="m419.017 222.548h4.815c3.991 0 7.257 3.266 7.257 7.257v7.985c0 3.991-3.266 7.257-7.257 7.257h-4.815c-3.991 0-7.257-3.266-7.257-7.257v-7.985c0-3.991 3.266-7.257 7.257-7.257z"/><path d="m391.82 199.05h4.815c3.991 0 7.257 3.266 7.257 7.257v7.985c0 3.991-3.266 7.257-7.257 7.257h-4.815c-3.991 0-7.257-3.266-7.257-7.257v-7.985c0-3.992 3.266-7.257 7.257-7.257z"/><path d="m364.654 182.829h4.815c3.991 0 7.257 3.266 7.257 7.257v7.985c0 3.991-3.266 7.257-7.257 7.257h-4.815c-3.991 0-7.257-3.266-7.257-7.257v-7.985c0-3.991 3.265-7.257 7.257-7.257z"/><path d="m337.652 199.579h4.815c3.991 0 7.257 3.266 7.257 7.257v7.985c0 3.991-3.266 7.257-7.257 7.257h-4.815c-3.991 0-7.257-3.266-7.257-7.257v-7.985c0-3.991 3.266-7.257 7.257-7.257z"/></g></g></svg>