<svg id="no-result" enable-background="new 0 0 512.001 512.001" height="150" viewBox="0 0 512.001 512.001" width="150" xmlns="http://www.w3.org/2000/svg"><g><g clip-rule="evenodd" fill-rule="evenodd"><path d="m262.002 76h93.999 146v-30.001c0-11-9-20-19.999-20h-200.001c-11 0-20 9-20 20v30.001z" fill="#ffda8f"/><path d="m376.001 96c0-11-9-20-20-20h-93.999-106.001c-11 0-19.999 9-19.999 20v30.001h240v-30.001z" fill="#ffc144"/><path d="m136.001 176.002v-50.001h-106.001c-11 0-20 9-20 20v30.001z" fill="#ffda8f"/><path d="m136.001 176.002h-126.001v289.999c0 11 9 20 20 20h200c11 0 20-9 20-20v-30.001h-93.999c-11 0-19.999-9-19.999-20v-239.998z" fill="#e3eaef"/><path d="m136.001 176.002v239.998c0 11 9 20 19.999 20h94 106.001c11 0 20-9 20-20v-30.001-259.998h-240z" fill="#fff"/><path d="m376.001 126.001v259.998h106.001c11 0 19.999-9 19.999-20v-289.999h-146c11 0 20 9 20 20z" fill="#e3eaef"/></g><g><path d="m482.002 16h-200c-16.542 0-30 13.458-30 30v20.001h-96.002c-16.542 0-30 13.457-30 29.999v20.002h-96c-16.542 0-30 13.457-30 29.999v320.001c0 16.542 13.458 30 30 30h200c16.542 0 30-13.458 30-30v-20.001h96.001c16.542 0 30-13.458 30-30v-20.001h96.001c16.542 0 30-13.458 30-30v-320c-.001-16.542-13.458-30-30-30zm-210 30c0-5.514 4.486-10 10-10h200c5.514 0 10 4.486 10 10v20.001h-220zm-242.002 90.002h96.001v30h-106.001v-20.001c0-5.514 4.486-9.999 10-9.999zm210 330c0 5.514-4.486 10-10 10h-200c-5.514 0-10-4.486-10-10v-280h106.001v60h-53c-5.523 0-10 4.478-10 10s4.477 10 10 10h53v20h-53c-5.523 0-10 4.478-10 10s4.477 10 10 10h53v20h-53c-5.523 0-10 4.478-10 10s4.477 10 10 10h53v20h-53c-5.523 0-10 4.478-10 10s4.477 10 10 10h53v20h-53c-5.523 0-10 4.478-10 10s4.477 10 10 10h53c.568 0 1.124-.048 1.666-.139 4.088 11.712 15.245 20.138 28.334 20.138h84v20.001zm116.001-40.001h-200.001c-5.514 0-10-4.486-10-10v-279.999h64.997c5.523 0 10-4.478 10-10s-4.477-10-10-10h-64.997v-20.002c0-5.514 4.486-9.999 10-9.999h200.001c5.514 0 10 4.485 10 9.999v20.002h-65.003c-5.523 0-10 4.478-10 10s4.477 10 10 10h65.003v279.999c0 5.513-4.486 10-10 10zm136-60.001c0 5.514-4.486 10-10 10h-96.001v-50h53c5.523 0 10-4.478 10-10s-4.477-10-10-10h-53v-20h53c5.523 0 10-4.478 10-10s-4.477-10-10-10h-53v-20h53c5.523 0 10-4.478 10-10s-4.477-10-10-10h-53v-19.999h53c5.523 0 10-4.478 10-10s-4.477-10-10-10h-53v-20h53c5.523 0 10-4.478 10-10s-4.477-10-10-10h-53v-50.001c0-3.504-.604-6.87-1.713-9.999h107.714z"/><path d="m256.001 301.14c-15.393 0-29.863 5.994-40.747 16.878-3.905 3.905-3.905 10.237 0 14.143 3.905 3.904 10.237 3.904 14.142 0 7.106-7.106 16.554-11.021 26.604-11.021s19.499 3.914 26.604 11.021c1.953 1.952 4.512 2.929 7.071 2.929s5.119-.977 7.071-2.929c3.905-3.905 3.906-10.237 0-14.143-10.882-10.883-25.352-16.878-40.745-16.878z"/><path d="m213.93 273.983c1.953 1.953 4.512 2.929 7.071 2.929s5.119-.977 7.071-2.929c3.905-3.905 3.905-10.237 0-14.143l-7.929-7.929 7.929-7.929c3.905-3.905 3.905-10.237 0-14.143-3.906-3.904-10.237-3.904-14.143 0l-7.928 7.929-7.928-7.929c-3.905-3.905-10.236-3.904-14.143 0-3.905 3.905-3.905 10.237 0 14.143l7.929 7.929-7.929 7.929c-3.905 3.905-3.905 10.237 0 14.143 1.953 1.952 4.512 2.929 7.071 2.929s5.119-.977 7.071-2.929l7.928-7.929z"/><path d="m328.072 229.841c-3.906-3.904-10.237-3.904-14.143 0l-7.928 7.929-7.928-7.929c-3.905-3.905-10.236-3.904-14.143 0-3.905 3.905-3.905 10.237 0 14.143l7.929 7.929-7.929 7.929c-3.905 3.905-3.905 10.237 0 14.143 1.953 1.952 4.512 2.929 7.071 2.929s5.119-.977 7.071-2.929l7.928-7.929 7.928 7.929c1.953 1.953 4.512 2.929 7.071 2.929s5.119-.977 7.071-2.929c3.905-3.905 3.905-10.237 0-14.143l-7.929-7.929 7.929-7.929c3.907-3.906 3.907-10.238.002-14.143z"/><path d="m256.001 136.002c5.523 0 10-4.478 10-10s-4.477-10-10-10h-.007c-5.523 0-9.996 4.478-9.996 10s4.48 10 10.003 10z"/></g></g></svg>